<svg width="210" height="190" viewBox="0 0 210 190" fill="none" xmlns="http://www.w3.org/2000/svg">
<path d="M130 0H90V10H130V0Z" fill="#903707"/>
<path d="M90 10H80V20H90V10Z" fill="#903707"/>
<path d="M140 10H130V20H140V10Z" fill="#903707"/>
<path d="M200 20H20V30H200V20Z" fill="#909B0E"/>
<path d="M60 30H20V40H60V30Z" fill="#909B0E"/>
<path d="M160 30H60V40H160V30Z" fill="#C16710"/>
<path d="M200 30H160V40H200V30Z" fill="#909B0E"/>
<path d="M190 40H30V50H190V40Z" fill="#909B0E"/>
<path d="M50 50H30V60H50V50Z" fill="#535A15"/>
<path d="M60 50H50V60H60V50Z" fill="#909B0E"/>
<path d="M70 50H60V60H70V50Z" fill="#903707"/>
<path d="M150 50H70V60H150V50Z" fill="#909B0E"/>
<path d="M160 50H150V60H160V50Z" fill="#903707"/>
<path d="M170 50H160V60H170V50Z" fill="#909B0E"/>
<path d="M190 50H170V60H190V50Z" fill="#535A15"/>
<path d="M50 60H30V70H50V60Z" fill="#909B0E"/>
<path d="M60 60H50V70H60V60Z" fill="#535A15"/>
<path d="M150 60H70V70H150V60Z" fill="#535A15"/>
<path d="M170 60H160V70H170V60Z" fill="#535A15"/>
<path d="M190 60H170V70H190V60Z" fill="#909B0E"/>
<path d="M30 70H20V80H30V70Z" fill="#552D1D"/>
<path d="M190 70H30V80H190V70Z" fill="#909B0E"/>
<path d="M200 70H190V80H200V70Z" fill="#552D1D"/>
<path d="M30 80H20V90H30V80Z" fill="#552D1D"/>
<path d="M190 80H30V90H190V80Z" fill="#909B0E"/>
<path d="M200 80H190V90H200V80Z" fill="#552D1D"/>
<path d="M30 90H20V100H30V90Z" fill="#552D1D"/>
<path d="M190 90H30V100H190V90Z" fill="#909B0E"/>
<path d="M210 90H200V100H210V90Z" fill="#552D1D"/>
<path d="M20 100H10V110H20V100Z" fill="#552D1D"/>
<path d="M190 100H30V110H190V100Z" fill="#909B0E"/>
<path d="M210 100H200V110H210V100Z" fill="#552D1D"/>
<path d="M20 110H10V120H20V110Z" fill="#552D1D"/>
<path d="M190 110H30V120H190V110Z" fill="#909B0E"/>
<path d="M210 110H200V120H210V110Z" fill="#552D1D"/>
<path d="M20 120H10V130H20V120Z" fill="#552D1D"/>
<path d="M190 120H30V130H190V120Z" fill="#909B0E"/>
<path d="M210 120H200V130H210V120Z" fill="#552D1D"/>
<path d="M20 130H10V140H20V130Z" fill="#552D1D"/>
<path d="M60 130H30V140H60V130Z" fill="#909B0E"/>
<path d="M70 130H60V140H70V130Z" fill="#903707"/>
<path d="M150 130H70V140H150V130Z" fill="#909B0E"/>
<path d="M160 130H150V140H160V130Z" fill="#903707"/>
<path d="M190 130H160V140H190V130Z" fill="#909B0E"/>
<path d="M210 130H200V140H210V130Z" fill="#552D1D"/>
<path d="M20 140H10V150H20V140Z" fill="#552D1D"/>
<path d="M50 140H30V150H50V140Z" fill="#909B0E"/>
<path d="M60 140H50V150H60V140Z" fill="#903707"/>
<path d="M70 140H60V150H70V140Z" fill="#C16710"/>
<path d="M80 140H70V150H80V140Z" fill="#903707"/>
<path d="M90 140H80V150H90V140Z" fill="#909B0E"/>
<path d="M100 140H90V150H100V140Z" fill="#535A15"/>
<path d="M110 140H100V150H110V140Z" fill="#909B0E"/>
<path d="M130 140H110V150H130V140Z" fill="#535A15"/>
<path d="M140 140H130V150H140V140Z" fill="#909B0E"/>
<path d="M150 140H140V150H150V140Z" fill="#903707"/>
<path d="M160 140H150V150H160V140Z" fill="#C16710"/>
<path d="M170 140H160V150H170V140Z" fill="#903707"/>
<path d="M190 140H170V150H190V140Z" fill="#909B0E"/>
<path d="M210 140H200V150H210V140Z" fill="#552D1D"/>
<path d="M10 150H0V160H10V150Z" fill="#552D1D"/>
<path d="M50 150H30V160H50V150Z" fill="#909B0E"/>
<path d="M80 150H50V160H80V150Z" fill="#903707"/>
<path d="M100 150H80V160H100V150Z" fill="#909B0E"/>
<path d="M110 150H100V160H110V150Z" fill="#535A15"/>
<path d="M140 150H110V160H140V150Z" fill="#909B0E"/>
<path d="M170 150H140V160H170V150Z" fill="#903707"/>
<path d="M190 150H170V160H190V150Z" fill="#909B0E"/>
<path d="M210 150H200V160H210V150Z" fill="#552D1D"/>
<path d="M10 160H0V170H10V160Z" fill="#552D1D"/>
<path d="M180 160H40V170H180V160Z" fill="#909B0E"/>
<path d="M210 160H200V170H210V160Z" fill="#552D1D"/>
<path d="M10 170H0V180H10V170Z" fill="#552D1D"/>
<path d="M40 170H20V180H40V170Z" fill="#552D1D"/>
<path d="M190 170H180V180H190V170Z" fill="#552D1D"/>
<path d="M210 170H200V180H210V170Z" fill="#552D1D"/>
<path d="M20 180H10V190H20V180Z" fill="#552D1D"/>
<path d="M200 180H190V190H200V180Z" fill="#552D1D"/>
<path d="M70 60H60V130H70V60Z" fill="#903707"/>
<path d="M160 60H150V130H160V60Z" fill="#903707"/>
</svg>
