<svg width="250" height="180" viewBox="0 0 250 180" fill="none" xmlns="http://www.w3.org/2000/svg">
<path d="M200 0H60V10H200V0Z" fill="#667AF9"/>
<path d="M200 10H60V20H200V10Z" fill="#667AF9"/>
<path d="M60 20H40V30H60V20Z" fill="#667AF9"/>
<path d="M220 20H200V30H220V20Z" fill="#667AF9"/>
<path d="M60 30H40V40H60V30Z" fill="#667AF9"/>
<path d="M220 30H200V40H220V30Z" fill="#667AF9"/>
<path d="M60 40H40V50H60V40Z" fill="#667AF9"/>
<path d="M220 40H200V50H220V40Z" fill="#667AF9"/>
<path d="M40 50H20V60H40V50Z" fill="#5648ED"/>
<path d="M60 50H40V60H60V50Z" fill="#667AF9"/>
<path d="M200 50H60V60H200V50Z" fill="#5648ED"/>
<path d="M220 50H200V60H220V50Z" fill="#667AF9"/>
<path d="M240 50H220V60H240V50Z" fill="#5648ED"/>
<path d="M30 60H20V70H30V60Z" fill="#5648ED"/>
<path d="M40 60H30V70H40V60Z" fill="#FFC110"/>
<path d="M60 60H40V70H60V60Z" fill="#667AF9"/>
<path d="M100 60H60V70H100V60Z" fill="#5648ED"/>
<path d="M160 60H100V70H160V60Z" fill="#FFC110"/>
<path d="M200 60H160V70H200V60Z" fill="#5648ED"/>
<path d="M220 60H200V70H220V60Z" fill="#667AF9"/>
<path d="M230 60H220V70H230V60Z" fill="#FFC110"/>
<path d="M240 60H230V70H240V60Z" fill="#5648ED"/>
<path d="M20 70H10V80H20V70Z" fill="#FFC110"/>
<path d="M30 70H20V80H30V70Z" fill="#5648ED"/>
<path d="M50 70H30V80H50V70Z" fill="#FFC110"/>
<path d="M110 70H50V80H110V70Z" fill="#5648ED"/>
<path d="M150 70H110V80H150V70Z" fill="#FFC110"/>
<path d="M210 70H150V80H210V70Z" fill="#5648ED"/>
<path d="M230 70H210V80H230V70Z" fill="#FFC110"/>
<path d="M240 70H230V80H240V70Z" fill="#5648ED"/>
<path d="M20 80H10V90H20V80Z" fill="#FFC110"/>
<path d="M100 80H20V90H100V80Z" fill="#5648ED"/>
<path d="M160 80H100V90H160V80Z" fill="#FFC110"/>
<path d="M240 80H160V90H240V80Z" fill="#5648ED"/>
<path d="M20 90H10V100H20V90Z" fill="#667AF9"/>
<path d="M240 90H20V100H240V90Z" fill="#5648ED"/>
<path d="M10 100H0V110H10V100Z" fill="#667AF9"/>
<path d="M30 100H20V110H30V100Z" fill="#667AF9"/>
<path d="M240 100H30V110H240V100Z" fill="#5648ED"/>
<path d="M10 110H0V120H10V110Z" fill="#667AF9"/>
<path d="M30 110H20V120H30V110Z" fill="#667AF9"/>
<path d="M240 110H30V120H240V110Z" fill="#5648ED"/>
<path d="M10 120H0V130H10V120Z" fill="#667AF9"/>
<path d="M20 120H10V130H20V120Z" fill="#5648ED"/>
<path d="M30 120H20V130H30V120Z" fill="#667AF9"/>
<path d="M250 120H30V130H250V120Z" fill="#5648ED"/>
<path d="M10 130H0V140H10V130Z" fill="#667AF9"/>
<path d="M20 130H10V140H20V130Z" fill="#5648ED"/>
<path d="M30 130H20V140H30V130Z" fill="#667AF9"/>
<path d="M250 130H30V140H250V130Z" fill="#5648ED"/>
<path d="M250 140H10V150H250V140Z" fill="#5648ED"/>
<path d="M80 150H10V160H80V150Z" fill="#5648ED"/>
<path d="M110 150H80V160H110V150Z" fill="#DA42CB"/>
<path d="M250 150H110V160H250V150Z" fill="#5648ED"/>
<path d="M250 160H10V170H250V160Z" fill="#5648ED"/>
<path d="M240 170H20V180H240V170Z" fill="#5648ED"/>
</svg>
