<?xml version="1.0" encoding="UTF-8"?>
<!DOCTYPE svg PUBLIC "-//W3C//DTD SVG 1.1//EN" "http://www.w3.org/Graphics/SVG/1.1/DTD/svg11.dtd">
<svg xmlns="http://www.w3.org/2000/svg" version="1.1" width="1024px" height="1024px" style="shape-rendering:geometricPrecision; text-rendering:geometricPrecision; image-rendering:optimizeQuality; fill-rule:evenodd; clip-rule:evenodd" xmlns:xlink="http://www.w3.org/1999/xlink">
<g><path style="opacity:1" fill="#61616c" d="M 671.5,191.5 C 650.167,191.5 628.833,191.5 607.5,191.5C 607.5,202.167 607.5,212.833 607.5,223.5C 628.833,223.5 650.167,223.5 671.5,223.5C 671.5,234.167 671.5,244.833 671.5,255.5C 692.833,255.5 714.167,255.5 735.5,255.5C 735.5,244.833 735.5,234.167 735.5,223.5C 756.833,223.5 778.167,223.5 799.5,223.5C 799.5,234.167 799.5,244.833 799.5,255.5C 820.833,255.5 842.167,255.5 863.5,255.5C 863.5,266.167 863.5,276.833 863.5,287.5C 628.833,287.5 394.167,287.5 159.5,287.5C 159.5,276.833 159.5,266.167 159.5,255.5C 180.833,255.5 202.167,255.5 223.5,255.5C 223.5,244.833 223.5,234.167 223.5,223.5C 244.833,223.5 266.167,223.5 287.5,223.5C 287.5,234.167 287.5,244.833 287.5,255.5C 308.833,255.5 330.167,255.5 351.5,255.5C 351.5,244.833 351.5,234.167 351.5,223.5C 372.833,223.5 394.167,223.5 415.5,223.5C 415.5,212.833 415.5,202.167 415.5,191.5C 394.167,191.5 372.833,191.5 351.5,191.5C 351.5,180.833 351.5,170.167 351.5,159.5C 372.833,159.5 394.167,159.5 415.5,159.5C 415.5,148.833 415.5,138.167 415.5,127.5C 436.833,127.5 458.167,127.5 479.5,127.5C 479.5,116.833 479.5,106.167 479.5,95.5C 500.833,95.5 522.167,95.5 543.5,95.5C 543.5,106.167 543.5,116.833 543.5,127.5C 564.833,127.5 586.167,127.5 607.5,127.5C 607.5,138.167 607.5,148.833 607.5,159.5C 628.833,159.5 650.167,159.5 671.5,159.5C 671.5,170.167 671.5,180.833 671.5,191.5 Z"/></g>
<g><path style="opacity:1" fill="#aaaaa7" d="M 447.5,159.5 C 490.167,159.5 532.833,159.5 575.5,159.5C 575.5,191.5 575.5,223.5 575.5,255.5C 532.833,255.5 490.167,255.5 447.5,255.5C 447.5,223.5 447.5,191.5 447.5,159.5 Z"/></g>
<g><path style="opacity:1" fill="#61616c" d="M 351.5,191.5 C 351.5,202.167 351.5,212.833 351.5,223.5C 330.167,223.5 308.833,223.5 287.5,223.5C 287.5,212.833 287.5,202.167 287.5,191.5C 308.833,191.5 330.167,191.5 351.5,191.5 Z"/></g>
<g><path style="opacity:1" fill="#4a4948" d="M 351.5,191.5 C 372.833,191.5 394.167,191.5 415.5,191.5C 415.5,202.167 415.5,212.833 415.5,223.5C 394.167,223.5 372.833,223.5 351.5,223.5C 351.5,212.833 351.5,202.167 351.5,191.5 Z"/></g>
<g><path style="opacity:1" fill="#4a4948" d="M 671.5,191.5 C 671.5,202.167 671.5,212.833 671.5,223.5C 650.167,223.5 628.833,223.5 607.5,223.5C 607.5,212.833 607.5,202.167 607.5,191.5C 628.833,191.5 650.167,191.5 671.5,191.5 Z"/></g>
<g><path style="opacity:1" fill="#61616c" d="M 671.5,191.5 C 692.833,191.5 714.167,191.5 735.5,191.5C 735.5,202.167 735.5,212.833 735.5,223.5C 714.167,223.5 692.833,223.5 671.5,223.5C 671.5,212.833 671.5,202.167 671.5,191.5 Z"/></g>
<g><path style="opacity:1" fill="#4a4948" d="M 287.5,223.5 C 308.833,223.5 330.167,223.5 351.5,223.5C 351.5,234.167 351.5,244.833 351.5,255.5C 330.167,255.5 308.833,255.5 287.5,255.5C 287.5,244.833 287.5,234.167 287.5,223.5 Z"/></g>
<g><path style="opacity:1" fill="#4a4948" d="M 671.5,223.5 C 692.833,223.5 714.167,223.5 735.5,223.5C 735.5,234.167 735.5,244.833 735.5,255.5C 714.167,255.5 692.833,255.5 671.5,255.5C 671.5,244.833 671.5,234.167 671.5,223.5 Z"/></g>
<g><path style="opacity:1" fill="#aaaaa7" d="M 159.5,287.5 C 394.167,287.5 628.833,287.5 863.5,287.5C 863.5,298.167 863.5,308.833 863.5,319.5C 852.833,319.5 842.167,319.5 831.5,319.5C 799.5,319.5 767.5,319.5 735.5,319.5C 735.5,330.167 735.5,340.833 735.5,351.5C 714.167,351.5 692.833,351.5 671.5,351.5C 671.5,340.833 671.5,330.167 671.5,319.5C 628.833,319.5 586.167,319.5 543.5,319.5C 543.5,330.167 543.5,340.833 543.5,351.5C 543.5,372.833 543.5,394.167 543.5,415.5C 532.833,415.5 522.167,415.5 511.5,415.5C 511.5,394.167 511.5,372.833 511.5,351.5C 500.833,351.5 490.167,351.5 479.5,351.5C 479.5,340.833 479.5,330.167 479.5,319.5C 436.833,319.5 394.167,319.5 351.5,319.5C 351.5,330.167 351.5,340.833 351.5,351.5C 340.833,351.5 330.167,351.5 319.5,351.5C 319.5,372.833 319.5,394.167 319.5,415.5C 308.833,415.5 298.167,415.5 287.5,415.5C 287.5,383.5 287.5,351.5 287.5,319.5C 255.5,319.5 223.5,319.5 191.5,319.5C 180.833,319.5 170.167,319.5 159.5,319.5C 159.5,308.833 159.5,298.167 159.5,287.5 Z"/></g>
<g><path style="opacity:1" fill="#61616c" d="M 191.5,319.5 C 223.5,319.5 255.5,319.5 287.5,319.5C 287.5,351.5 287.5,383.5 287.5,415.5C 266.167,415.5 244.833,415.5 223.5,415.5C 223.5,447.5 223.5,479.5 223.5,511.5C 234.167,511.5 244.833,511.5 255.5,511.5C 255.5,490.167 255.5,468.833 255.5,447.5C 266.167,447.5 276.833,447.5 287.5,447.5C 287.5,500.833 287.5,554.167 287.5,607.5C 266.167,607.5 244.833,607.5 223.5,607.5C 223.5,618.167 223.5,628.833 223.5,639.5C 415.5,639.5 607.5,639.5 799.5,639.5C 799.5,628.833 799.5,618.167 799.5,607.5C 778.167,607.5 756.833,607.5 735.5,607.5C 735.5,586.167 735.5,564.833 735.5,543.5C 735.5,479.5 735.5,415.5 735.5,351.5C 735.5,340.833 735.5,330.167 735.5,319.5C 767.5,319.5 799.5,319.5 831.5,319.5C 831.5,426.167 831.5,532.833 831.5,639.5C 842.167,639.5 852.833,639.5 863.5,639.5C 863.5,650.167 863.5,660.833 863.5,671.5C 874.167,671.5 884.833,671.5 895.5,671.5C 895.5,682.167 895.5,692.833 895.5,703.5C 874.167,703.5 852.833,703.5 831.5,703.5C 831.5,692.833 831.5,682.167 831.5,671.5C 618.167,671.5 404.833,671.5 191.5,671.5C 191.5,682.167 191.5,692.833 191.5,703.5C 170.167,703.5 148.833,703.5 127.5,703.5C 127.5,692.833 127.5,682.167 127.5,671.5C 138.167,671.5 148.833,671.5 159.5,671.5C 159.5,660.833 159.5,650.167 159.5,639.5C 170.167,639.5 180.833,639.5 191.5,639.5C 191.5,596.833 191.5,554.167 191.5,511.5C 191.5,490.167 191.5,468.833 191.5,447.5C 191.5,436.833 191.5,426.167 191.5,415.5C 191.5,404.833 191.5,394.167 191.5,383.5C 191.5,362.167 191.5,340.833 191.5,319.5 Z"/></g>
<g><path style="opacity:1" fill="#61616c" d="M 479.5,351.5 C 436.833,351.5 394.167,351.5 351.5,351.5C 351.5,340.833 351.5,330.167 351.5,319.5C 394.167,319.5 436.833,319.5 479.5,319.5C 479.5,330.167 479.5,340.833 479.5,351.5 Z"/></g>
<g><path style="opacity:1" fill="#61616c" d="M 671.5,351.5 C 628.833,351.5 586.167,351.5 543.5,351.5C 543.5,340.833 543.5,330.167 543.5,319.5C 586.167,319.5 628.833,319.5 671.5,319.5C 671.5,330.167 671.5,340.833 671.5,351.5 Z"/></g>
<g><path style="opacity:1" fill="#fec10f" d="M 191.5,383.5 C 191.5,394.167 191.5,404.833 191.5,415.5C 170.167,415.5 148.833,415.5 127.5,415.5C 127.5,426.167 127.5,436.833 127.5,447.5C 106.167,447.5 84.8333,447.5 63.5,447.5C 63.5,426.167 63.5,404.833 63.5,383.5C 74.1667,383.5 84.8333,383.5 95.5,383.5C 95.5,372.833 95.5,362.167 95.5,351.5C 116.833,351.5 138.167,351.5 159.5,351.5C 159.5,362.167 159.5,372.833 159.5,383.5C 170.167,383.5 180.833,383.5 191.5,383.5 Z"/></g>
<g><path style="opacity:1" fill="#4a4948" d="M 223.5,351.5 C 234.167,351.5 244.833,351.5 255.5,351.5C 255.5,362.167 255.5,372.833 255.5,383.5C 244.833,383.5 234.167,383.5 223.5,383.5C 223.5,372.833 223.5,362.167 223.5,351.5 Z"/></g>
<g><path style="opacity:1" fill="#fec10f" d="M 351.5,351.5 C 394.167,351.5 436.833,351.5 479.5,351.5C 490.167,351.5 500.833,351.5 511.5,351.5C 511.5,372.833 511.5,394.167 511.5,415.5C 522.167,415.5 532.833,415.5 543.5,415.5C 543.5,394.167 543.5,372.833 543.5,351.5C 586.167,351.5 628.833,351.5 671.5,351.5C 692.833,351.5 714.167,351.5 735.5,351.5C 735.5,415.5 735.5,479.5 735.5,543.5C 714.167,543.5 692.833,543.5 671.5,543.5C 628.833,543.5 586.167,543.5 543.5,543.5C 543.5,511.5 543.5,479.5 543.5,447.5C 532.833,447.5 522.167,447.5 511.5,447.5C 511.5,479.5 511.5,511.5 511.5,543.5C 500.833,543.5 490.167,543.5 479.5,543.5C 436.833,543.5 394.167,543.5 351.5,543.5C 340.833,543.5 330.167,543.5 319.5,543.5C 319.5,511.5 319.5,479.5 319.5,447.5C 308.833,447.5 298.167,447.5 287.5,447.5C 276.833,447.5 266.167,447.5 255.5,447.5C 255.5,468.833 255.5,490.167 255.5,511.5C 244.833,511.5 234.167,511.5 223.5,511.5C 223.5,479.5 223.5,447.5 223.5,415.5C 244.833,415.5 266.167,415.5 287.5,415.5C 298.167,415.5 308.833,415.5 319.5,415.5C 319.5,394.167 319.5,372.833 319.5,351.5C 330.167,351.5 340.833,351.5 351.5,351.5 Z"/></g>
<g><path style="opacity:1" fill="#4a4948" d="M 767.5,351.5 C 778.167,351.5 788.833,351.5 799.5,351.5C 799.5,362.167 799.5,372.833 799.5,383.5C 788.833,383.5 778.167,383.5 767.5,383.5C 767.5,372.833 767.5,362.167 767.5,351.5 Z"/></g>
<g><path style="opacity:1" fill="#fefffe" d="M 415.5,383.5 C 415.5,426.167 415.5,468.833 415.5,511.5C 394.167,511.5 372.833,511.5 351.5,511.5C 351.5,468.833 351.5,426.167 351.5,383.5C 372.833,383.5 394.167,383.5 415.5,383.5 Z"/></g>
<g><path style="opacity:1" fill="#000000" d="M 415.5,383.5 C 436.833,383.5 458.167,383.5 479.5,383.5C 479.5,426.167 479.5,468.833 479.5,511.5C 458.167,511.5 436.833,511.5 415.5,511.5C 415.5,468.833 415.5,426.167 415.5,383.5 Z"/></g>
<g><path style="opacity:1" fill="#fefffe" d="M 639.5,383.5 C 639.5,426.167 639.5,468.833 639.5,511.5C 618.167,511.5 596.833,511.5 575.5,511.5C 575.5,468.833 575.5,426.167 575.5,383.5C 596.833,383.5 618.167,383.5 639.5,383.5 Z"/></g>
<g><path style="opacity:1" fill="#000000" d="M 639.5,383.5 C 660.833,383.5 682.167,383.5 703.5,383.5C 703.5,426.167 703.5,468.833 703.5,511.5C 682.167,511.5 660.833,511.5 639.5,511.5C 639.5,468.833 639.5,426.167 639.5,383.5 Z"/></g>
<g><path style="opacity:1" fill="#fec10f" d="M 127.5,447.5 C 148.833,447.5 170.167,447.5 191.5,447.5C 191.5,468.833 191.5,490.167 191.5,511.5C 180.833,511.5 170.167,511.5 159.5,511.5C 159.5,522.167 159.5,532.833 159.5,543.5C 138.167,543.5 116.833,543.5 95.5,543.5C 95.5,532.833 95.5,522.167 95.5,511.5C 84.8333,511.5 74.1667,511.5 63.5,511.5C 63.5,500.833 63.5,490.167 63.5,479.5C 84.8333,479.5 106.167,479.5 127.5,479.5C 127.5,468.833 127.5,458.167 127.5,447.5 Z"/></g>
<g><path style="opacity:1" fill="#aaaaa7" d="M 287.5,447.5 C 298.167,447.5 308.833,447.5 319.5,447.5C 319.5,479.5 319.5,511.5 319.5,543.5C 330.167,543.5 340.833,543.5 351.5,543.5C 351.5,564.833 351.5,586.167 351.5,607.5C 394.167,607.5 436.833,607.5 479.5,607.5C 479.5,586.167 479.5,564.833 479.5,543.5C 490.167,543.5 500.833,543.5 511.5,543.5C 511.5,511.5 511.5,479.5 511.5,447.5C 522.167,447.5 532.833,447.5 543.5,447.5C 543.5,479.5 543.5,511.5 543.5,543.5C 543.5,564.833 543.5,586.167 543.5,607.5C 586.167,607.5 628.833,607.5 671.5,607.5C 671.5,586.167 671.5,564.833 671.5,543.5C 692.833,543.5 714.167,543.5 735.5,543.5C 735.5,564.833 735.5,586.167 735.5,607.5C 756.833,607.5 778.167,607.5 799.5,607.5C 799.5,618.167 799.5,628.833 799.5,639.5C 607.5,639.5 415.5,639.5 223.5,639.5C 223.5,628.833 223.5,618.167 223.5,607.5C 244.833,607.5 266.167,607.5 287.5,607.5C 287.5,554.167 287.5,500.833 287.5,447.5 Z"/></g>
<g><path style="opacity:1" fill="#61616c" d="M 351.5,543.5 C 394.167,543.5 436.833,543.5 479.5,543.5C 479.5,564.833 479.5,586.167 479.5,607.5C 436.833,607.5 394.167,607.5 351.5,607.5C 351.5,586.167 351.5,564.833 351.5,543.5 Z"/></g>
<g><path style="opacity:1" fill="#61616c" d="M 543.5,543.5 C 586.167,543.5 628.833,543.5 671.5,543.5C 671.5,564.833 671.5,586.167 671.5,607.5C 628.833,607.5 586.167,607.5 543.5,607.5C 543.5,586.167 543.5,564.833 543.5,543.5 Z"/></g>
<g><path style="opacity:1" fill="#aaaaa7" d="M 831.5,703.5 C 618.167,703.5 404.833,703.5 191.5,703.5C 191.5,692.833 191.5,682.167 191.5,671.5C 404.833,671.5 618.167,671.5 831.5,671.5C 831.5,682.167 831.5,692.833 831.5,703.5 Z"/></g>
</svg>
