<?xml version="1.0" encoding="UTF-8"?>
<!DOCTYPE svg PUBLIC "-//W3C//DTD SVG 1.1//EN" "http://www.w3.org/Graphics/SVG/1.1/DTD/svg11.dtd">
<svg xmlns="http://www.w3.org/2000/svg" version="1.1" width="1024px" height="1024px" style="shape-rendering:geometricPrecision; text-rendering:geometricPrecision; image-rendering:optimizeQuality; fill-rule:evenodd; clip-rule:evenodd" xmlns:xlink="http://www.w3.org/1999/xlink">
<g><path style="opacity:1" fill="#fec10f" d="M 223.5,511.5 C 212.833,511.5 202.167,511.5 191.5,511.5C 191.5,447.5 191.5,383.5 191.5,319.5C 202.167,319.5 212.833,319.5 223.5,319.5C 223.5,298.167 223.5,276.833 223.5,255.5C 234.167,255.5 244.833,255.5 255.5,255.5C 255.5,234.167 255.5,212.833 255.5,191.5C 266.167,191.5 276.833,191.5 287.5,191.5C 287.5,180.833 287.5,170.167 287.5,159.5C 308.833,159.5 330.167,159.5 351.5,159.5C 351.5,148.833 351.5,138.167 351.5,127.5C 372.833,127.5 394.167,127.5 415.5,127.5C 415.5,116.833 415.5,106.167 415.5,95.5C 479.5,95.5 543.5,95.5 607.5,95.5C 607.5,106.167 607.5,116.833 607.5,127.5C 628.833,127.5 650.167,127.5 671.5,127.5C 671.5,138.167 671.5,148.833 671.5,159.5C 692.833,159.5 714.167,159.5 735.5,159.5C 735.5,170.167 735.5,180.833 735.5,191.5C 746.167,191.5 756.833,191.5 767.5,191.5C 767.5,212.833 767.5,234.167 767.5,255.5C 778.167,255.5 788.833,255.5 799.5,255.5C 799.5,276.833 799.5,298.167 799.5,319.5C 810.167,319.5 820.833,319.5 831.5,319.5C 831.5,383.5 831.5,447.5 831.5,511.5C 820.833,511.5 810.167,511.5 799.5,511.5C 799.5,532.833 799.5,554.167 799.5,575.5C 788.833,575.5 778.167,575.5 767.5,575.5C 767.5,596.833 767.5,618.167 767.5,639.5C 756.833,639.5 746.167,639.5 735.5,639.5C 735.5,650.167 735.5,660.833 735.5,671.5C 714.167,671.5 692.833,671.5 671.5,671.5C 671.5,682.167 671.5,692.833 671.5,703.5C 650.167,703.5 628.833,703.5 607.5,703.5C 607.5,714.167 607.5,724.833 607.5,735.5C 543.5,735.5 479.5,735.5 415.5,735.5C 415.5,724.833 415.5,714.167 415.5,703.5C 394.167,703.5 372.833,703.5 351.5,703.5C 351.5,692.833 351.5,682.167 351.5,671.5C 330.167,671.5 308.833,671.5 287.5,671.5C 287.5,660.833 287.5,650.167 287.5,639.5C 276.833,639.5 266.167,639.5 255.5,639.5C 255.5,618.167 255.5,596.833 255.5,575.5C 244.833,575.5 234.167,575.5 223.5,575.5C 223.5,554.167 223.5,532.833 223.5,511.5 Z"/></g>
<g><path style="opacity:1" fill="#da8322" d="M 575.5,159.5 C 532.833,159.5 490.167,159.5 447.5,159.5C 447.5,148.833 447.5,138.167 447.5,127.5C 490.167,127.5 532.833,127.5 575.5,127.5C 575.5,138.167 575.5,148.833 575.5,159.5 Z"/></g>
<g><path style="opacity:1" fill="#da8322" d="M 447.5,159.5 C 447.5,170.167 447.5,180.833 447.5,191.5C 426.167,191.5 404.833,191.5 383.5,191.5C 383.5,180.833 383.5,170.167 383.5,159.5C 404.833,159.5 426.167,159.5 447.5,159.5 Z"/></g>
<g><path style="opacity:1" fill="#fec10f" d="M 447.5,159.5 C 490.167,159.5 532.833,159.5 575.5,159.5C 575.5,170.167 575.5,180.833 575.5,191.5C 596.833,191.5 618.167,191.5 639.5,191.5C 639.5,202.167 639.5,212.833 639.5,223.5C 660.833,223.5 682.167,223.5 703.5,223.5C 703.5,244.833 703.5,266.167 703.5,287.5C 714.167,287.5 724.833,287.5 735.5,287.5C 735.5,308.833 735.5,330.167 735.5,351.5C 671.5,351.5 607.5,351.5 543.5,351.5C 543.5,372.833 543.5,394.167 543.5,415.5C 532.833,415.5 522.167,415.5 511.5,415.5C 511.5,394.167 511.5,372.833 511.5,351.5C 500.833,351.5 490.167,351.5 479.5,351.5C 479.5,340.833 479.5,330.167 479.5,319.5C 447.5,319.5 415.5,319.5 383.5,319.5C 383.5,330.167 383.5,340.833 383.5,351.5C 362.167,351.5 340.833,351.5 319.5,351.5C 319.5,372.833 319.5,394.167 319.5,415.5C 298.167,415.5 276.833,415.5 255.5,415.5C 255.5,394.167 255.5,372.833 255.5,351.5C 266.167,351.5 276.833,351.5 287.5,351.5C 287.5,330.167 287.5,308.833 287.5,287.5C 298.167,287.5 308.833,287.5 319.5,287.5C 319.5,266.167 319.5,244.833 319.5,223.5C 340.833,223.5 362.167,223.5 383.5,223.5C 383.5,212.833 383.5,202.167 383.5,191.5C 404.833,191.5 426.167,191.5 447.5,191.5C 447.5,180.833 447.5,170.167 447.5,159.5 Z"/></g>
<g><path style="opacity:1" fill="#da8322" d="M 575.5,159.5 C 596.833,159.5 618.167,159.5 639.5,159.5C 639.5,170.167 639.5,180.833 639.5,191.5C 618.167,191.5 596.833,191.5 575.5,191.5C 575.5,180.833 575.5,170.167 575.5,159.5 Z"/></g>
<g><path style="opacity:1" fill="#da8322" d="M 383.5,191.5 C 383.5,202.167 383.5,212.833 383.5,223.5C 362.167,223.5 340.833,223.5 319.5,223.5C 319.5,212.833 319.5,202.167 319.5,191.5C 340.833,191.5 362.167,191.5 383.5,191.5 Z"/></g>
<g><path style="opacity:1" fill="#da8322" d="M 639.5,191.5 C 660.833,191.5 682.167,191.5 703.5,191.5C 703.5,202.167 703.5,212.833 703.5,223.5C 682.167,223.5 660.833,223.5 639.5,223.5C 639.5,212.833 639.5,202.167 639.5,191.5 Z"/></g>
<g><path style="opacity:1" fill="#da8322" d="M 319.5,223.5 C 319.5,244.833 319.5,266.167 319.5,287.5C 308.833,287.5 298.167,287.5 287.5,287.5C 287.5,266.167 287.5,244.833 287.5,223.5C 298.167,223.5 308.833,223.5 319.5,223.5 Z"/></g>
<g><path style="opacity:1" fill="#da8322" d="M 703.5,223.5 C 714.167,223.5 724.833,223.5 735.5,223.5C 735.5,244.833 735.5,266.167 735.5,287.5C 724.833,287.5 714.167,287.5 703.5,287.5C 703.5,266.167 703.5,244.833 703.5,223.5 Z"/></g>
<g><path style="opacity:1" fill="#da8322" d="M 287.5,287.5 C 287.5,308.833 287.5,330.167 287.5,351.5C 276.833,351.5 266.167,351.5 255.5,351.5C 255.5,330.167 255.5,308.833 255.5,287.5C 266.167,287.5 276.833,287.5 287.5,287.5 Z"/></g>
<g><path style="opacity:1" fill="#fef670" d="M 575.5,287.5 C 607.5,287.5 639.5,287.5 671.5,287.5C 671.5,298.167 671.5,308.833 671.5,319.5C 639.5,319.5 607.5,319.5 575.5,319.5C 575.5,308.833 575.5,298.167 575.5,287.5 Z"/></g>
<g><path style="opacity:1" fill="#da8322" d="M 735.5,287.5 C 746.167,287.5 756.833,287.5 767.5,287.5C 767.5,308.833 767.5,330.167 767.5,351.5C 756.833,351.5 746.167,351.5 735.5,351.5C 735.5,330.167 735.5,308.833 735.5,287.5 Z"/></g>
<g><path style="opacity:1" fill="#fef670" d="M 479.5,351.5 C 447.5,351.5 415.5,351.5 383.5,351.5C 383.5,340.833 383.5,330.167 383.5,319.5C 415.5,319.5 447.5,319.5 479.5,319.5C 479.5,330.167 479.5,340.833 479.5,351.5 Z"/></g>
<g><path style="opacity:1" fill="#fec10f" d="M 95.5,447.5 C 74.1667,447.5 52.8333,447.5 31.5,447.5C 31.5,426.167 31.5,404.833 31.5,383.5C 42.1667,383.5 52.8333,383.5 63.5,383.5C 63.5,372.833 63.5,362.167 63.5,351.5C 84.8333,351.5 106.167,351.5 127.5,351.5C 127.5,362.167 127.5,372.833 127.5,383.5C 138.167,383.5 148.833,383.5 159.5,383.5C 159.5,394.167 159.5,404.833 159.5,415.5C 138.167,415.5 116.833,415.5 95.5,415.5C 95.5,426.167 95.5,436.833 95.5,447.5 Z"/></g>
<g><path style="opacity:1" fill="#da8322" d="M 255.5,351.5 C 255.5,372.833 255.5,394.167 255.5,415.5C 244.833,415.5 234.167,415.5 223.5,415.5C 223.5,394.167 223.5,372.833 223.5,351.5C 234.167,351.5 244.833,351.5 255.5,351.5 Z"/></g>
<g><path style="opacity:1" fill="#000000" d="M 383.5,351.5 C 415.5,351.5 447.5,351.5 479.5,351.5C 490.167,351.5 500.833,351.5 511.5,351.5C 511.5,372.833 511.5,394.167 511.5,415.5C 522.167,415.5 532.833,415.5 543.5,415.5C 543.5,394.167 543.5,372.833 543.5,351.5C 607.5,351.5 671.5,351.5 735.5,351.5C 735.5,415.5 735.5,479.5 735.5,543.5C 671.5,543.5 607.5,543.5 543.5,543.5C 543.5,511.5 543.5,479.5 543.5,447.5C 532.833,447.5 522.167,447.5 511.5,447.5C 511.5,479.5 511.5,511.5 511.5,543.5C 447.5,543.5 383.5,543.5 319.5,543.5C 319.5,511.5 319.5,479.5 319.5,447.5C 298.167,447.5 276.833,447.5 255.5,447.5C 255.5,458.167 255.5,468.833 255.5,479.5C 255.5,490.167 255.5,500.833 255.5,511.5C 244.833,511.5 234.167,511.5 223.5,511.5C 223.5,479.5 223.5,447.5 223.5,415.5C 234.167,415.5 244.833,415.5 255.5,415.5C 276.833,415.5 298.167,415.5 319.5,415.5C 319.5,394.167 319.5,372.833 319.5,351.5C 340.833,351.5 362.167,351.5 383.5,351.5 Z"/></g>
<g><path style="opacity:1" fill="#da8322" d="M 767.5,351.5 C 778.167,351.5 788.833,351.5 799.5,351.5C 799.5,394.167 799.5,436.833 799.5,479.5C 788.833,479.5 778.167,479.5 767.5,479.5C 767.5,436.833 767.5,394.167 767.5,351.5 Z"/></g>
<g><path style="opacity:1" fill="#fe0e0d" d="M 415.5,383.5 C 426.167,383.5 436.833,383.5 447.5,383.5C 447.5,394.167 447.5,404.833 447.5,415.5C 436.833,415.5 426.167,415.5 415.5,415.5C 415.5,404.833 415.5,394.167 415.5,383.5 Z"/></g>
<g><path style="opacity:1" fill="#fe0e0d" d="M 639.5,383.5 C 650.167,383.5 660.833,383.5 671.5,383.5C 671.5,394.167 671.5,404.833 671.5,415.5C 660.833,415.5 650.167,415.5 639.5,415.5C 639.5,404.833 639.5,394.167 639.5,383.5 Z"/></g>
<g><path style="opacity:1" fill="#fec10f" d="M 95.5,447.5 C 116.833,447.5 138.167,447.5 159.5,447.5C 159.5,468.833 159.5,490.167 159.5,511.5C 148.833,511.5 138.167,511.5 127.5,511.5C 127.5,522.167 127.5,532.833 127.5,543.5C 106.167,543.5 84.8333,543.5 63.5,543.5C 63.5,532.833 63.5,522.167 63.5,511.5C 52.8333,511.5 42.1667,511.5 31.5,511.5C 31.5,500.833 31.5,490.167 31.5,479.5C 52.8333,479.5 74.1667,479.5 95.5,479.5C 95.5,468.833 95.5,458.167 95.5,447.5 Z"/></g>
<g><path style="opacity:1" fill="#fec10f" d="M 319.5,543.5 C 308.833,543.5 298.167,543.5 287.5,543.5C 287.5,522.167 287.5,500.833 287.5,479.5C 276.833,479.5 266.167,479.5 255.5,479.5C 255.5,468.833 255.5,458.167 255.5,447.5C 276.833,447.5 298.167,447.5 319.5,447.5C 319.5,479.5 319.5,511.5 319.5,543.5 Z"/></g>
<g><path style="opacity:1" fill="#0adc4c" d="M 351.5,447.5 C 362.167,447.5 372.833,447.5 383.5,447.5C 383.5,458.167 383.5,468.833 383.5,479.5C 372.833,479.5 362.167,479.5 351.5,479.5C 351.5,468.833 351.5,458.167 351.5,447.5 Z"/></g>
<g><path style="opacity:1" fill="#1928f4" d="M 447.5,447.5 C 458.167,447.5 468.833,447.5 479.5,447.5C 479.5,458.167 479.5,468.833 479.5,479.5C 468.833,479.5 458.167,479.5 447.5,479.5C 447.5,468.833 447.5,458.167 447.5,447.5 Z"/></g>
<g><path style="opacity:1" fill="#0adc4c" d="M 575.5,447.5 C 586.167,447.5 596.833,447.5 607.5,447.5C 607.5,458.167 607.5,468.833 607.5,479.5C 596.833,479.5 586.167,479.5 575.5,479.5C 575.5,468.833 575.5,458.167 575.5,447.5 Z"/></g>
<g><path style="opacity:1" fill="#1928f4" d="M 671.5,447.5 C 682.167,447.5 692.833,447.5 703.5,447.5C 703.5,458.167 703.5,468.833 703.5,479.5C 692.833,479.5 682.167,479.5 671.5,479.5C 671.5,468.833 671.5,458.167 671.5,447.5 Z"/></g>
<g><path style="opacity:1" fill="#da8322" d="M 255.5,479.5 C 266.167,479.5 276.833,479.5 287.5,479.5C 287.5,500.833 287.5,522.167 287.5,543.5C 276.833,543.5 266.167,543.5 255.5,543.5C 255.5,532.833 255.5,522.167 255.5,511.5C 255.5,500.833 255.5,490.167 255.5,479.5 Z"/></g>
<g><path style="opacity:1" fill="#da8322" d="M 287.5,543.5 C 298.167,543.5 308.833,543.5 319.5,543.5C 319.5,564.833 319.5,586.167 319.5,607.5C 308.833,607.5 298.167,607.5 287.5,607.5C 287.5,586.167 287.5,564.833 287.5,543.5 Z"/></g>
<g><path style="opacity:1" fill="#fef670" d="M 383.5,607.5 C 383.5,596.833 383.5,586.167 383.5,575.5C 394.167,575.5 404.833,575.5 415.5,575.5C 415.5,586.167 415.5,596.833 415.5,607.5C 404.833,607.5 394.167,607.5 383.5,607.5 Z"/></g>
<g><path style="opacity:1" fill="#fef670" d="M 447.5,575.5 C 490.167,575.5 532.833,575.5 575.5,575.5C 575.5,586.167 575.5,596.833 575.5,607.5C 532.833,607.5 490.167,607.5 447.5,607.5C 447.5,596.833 447.5,586.167 447.5,575.5 Z"/></g>
<g><path style="opacity:1" fill="#da8322" d="M 703.5,607.5 C 703.5,596.833 703.5,586.167 703.5,575.5C 714.167,575.5 724.833,575.5 735.5,575.5C 735.5,586.167 735.5,596.833 735.5,607.5C 724.833,607.5 714.167,607.5 703.5,607.5 Z"/></g>
<g><path style="opacity:1" fill="#da8322" d="M 319.5,607.5 C 340.833,607.5 362.167,607.5 383.5,607.5C 383.5,618.167 383.5,628.833 383.5,639.5C 362.167,639.5 340.833,639.5 319.5,639.5C 319.5,628.833 319.5,618.167 319.5,607.5 Z"/></g>
<g><path style="opacity:1" fill="#da8322" d="M 703.5,607.5 C 703.5,618.167 703.5,628.833 703.5,639.5C 682.167,639.5 660.833,639.5 639.5,639.5C 639.5,628.833 639.5,618.167 639.5,607.5C 660.833,607.5 682.167,607.5 703.5,607.5 Z"/></g>
<g><path style="opacity:1" fill="#da8322" d="M 383.5,639.5 C 404.833,639.5 426.167,639.5 447.5,639.5C 447.5,650.167 447.5,660.833 447.5,671.5C 426.167,671.5 404.833,671.5 383.5,671.5C 383.5,660.833 383.5,650.167 383.5,639.5 Z"/></g>
<g><path style="opacity:1" fill="#da8322" d="M 639.5,639.5 C 639.5,650.167 639.5,660.833 639.5,671.5C 618.167,671.5 596.833,671.5 575.5,671.5C 575.5,660.833 575.5,650.167 575.5,639.5C 596.833,639.5 618.167,639.5 639.5,639.5 Z"/></g>
<g><path style="opacity:1" fill="#da8322" d="M 447.5,671.5 C 490.167,671.5 532.833,671.5 575.5,671.5C 575.5,682.167 575.5,692.833 575.5,703.5C 532.833,703.5 490.167,703.5 447.5,703.5C 447.5,692.833 447.5,682.167 447.5,671.5 Z"/></g>
</svg>
