<svg width="250" height="120" viewBox="0 0 250 120" fill="none" xmlns="http://www.w3.org/2000/svg">
<path d="M250 0H0V10H250V0Z" fill="#5A423F"/>
<path d="M10 10H0V20H10V10Z" fill="#5A423F"/>
<path d="M180 10H10V20H180V10Z" fill="#7D635E"/>
<path d="M190 10H180V20H190V10Z" fill="#5A423F"/>
<path d="M240 10H190V20H240V10Z" fill="#F3322C"/>
<path d="M250 10H240V20H250V10Z" fill="#5A423F"/>
<path d="M10 20H0V30H10V20Z" fill="#5A423F"/>
<path d="M20 20H10V30H20V20Z" fill="#7D635E"/>
<path d="M170 20H20V30H170V20Z" fill="#5A423F"/>
<path d="M180 20H170V30H180V20Z" fill="#7D635E"/>
<path d="M190 20H180V30H190V20Z" fill="#5A423F"/>
<path d="M240 20H190V30H240V20Z" fill="#F3322C"/>
<path d="M250 20H240V30H250V20Z" fill="#5A423F"/>
<path d="M10 30H0V40H10V30Z" fill="#5A423F"/>
<path d="M20 30H10V40H20V30Z" fill="#7D635E"/>
<path d="M170 30H20V40H170V30Z" fill="#5A423F"/>
<path d="M180 30H170V40H180V30Z" fill="#7D635E"/>
<path d="M250 30H180V40H250V30Z" fill="#5A423F"/>
<path d="M10 40H0V50H10V40Z" fill="#5A423F"/>
<path d="M20 40H10V50H20V40Z" fill="#7D635E"/>
<path d="M170 40H20V50H170V40Z" fill="#5A423F"/>
<path d="M180 40H170V50H180V40Z" fill="#7D635E"/>
<path d="M190 40H180V50H190V40Z" fill="#5A423F"/>
<path d="M200 40H190V50H200V40Z" fill="#F3322C"/>
<path d="M210 40H200V50H210V40Z" fill="#5A423F"/>
<path d="M220 40H210V50H220V40Z" fill="#F3322C"/>
<path d="M230 40H220V50H230V40Z" fill="#5A423F"/>
<path d="M240 40H230V50H240V40Z" fill="#F3322C"/>
<path d="M250 40H240V50H250V40Z" fill="#5A423F"/>
<path d="M10 50H0V60H10V50Z" fill="#5A423F"/>
<path d="M20 50H10V60H20V50Z" fill="#7D635E"/>
<path d="M170 50H20V60H170V50Z" fill="#5A423F"/>
<path d="M180 50H170V60H180V50Z" fill="#7D635E"/>
<path d="M250 50H180V60H250V50Z" fill="#5A423F"/>
<path d="M10 60H0V70H10V60Z" fill="#5A423F"/>
<path d="M20 60H10V70H20V60Z" fill="#7D635E"/>
<path d="M170 60H20V70H170V60Z" fill="#5A423F"/>
<path d="M180 60H170V70H180V60Z" fill="#7D635E"/>
<path d="M190 60H180V70H190V60Z" fill="#5A423F"/>
<path d="M200 60H190V70H200V60Z" fill="#F3322C"/>
<path d="M210 60H200V70H210V60Z" fill="#5A423F"/>
<path d="M220 60H210V70H220V60Z" fill="#F3322C"/>
<path d="M230 60H220V70H230V60Z" fill="#5A423F"/>
<path d="M240 60H230V70H240V60Z" fill="#F3322C"/>
<path d="M250 60H240V70H250V60Z" fill="#5A423F"/>
<path d="M10 70H0V80H10V70Z" fill="#5A423F"/>
<path d="M20 70H10V80H20V70Z" fill="#7D635E"/>
<path d="M30 70H20V80H30V70Z" fill="#5A423F"/>
<path d="M40 70H30V80H40V70Z" fill="#D6C3BE"/>
<path d="M170 70H40V80H170V70Z" fill="#5A423F"/>
<path d="M180 70H170V80H180V70Z" fill="#7D635E"/>
<path d="M250 70H180V80H250V70Z" fill="#5A423F"/>
<path d="M10 80H0V90H10V80Z" fill="#5A423F"/>
<path d="M20 80H10V90H20V80Z" fill="#7D635E"/>
<path d="M30 80H20V90H30V80Z" fill="#D6C3BE"/>
<path d="M40 80H30V90H40V80Z" fill="#5A423F"/>
<path d="M50 80H40V90H50V80Z" fill="#D6C3BE"/>
<path d="M170 80H50V90H170V80Z" fill="#5A423F"/>
<path d="M180 80H170V90H180V80Z" fill="#7D635E"/>
<path d="M190 80H180V90H190V80Z" fill="#5A423F"/>
<path d="M200 80H190V90H200V80Z" fill="#F3322C"/>
<path d="M210 80H200V90H210V80Z" fill="#5A423F"/>
<path d="M220 80H210V90H220V80Z" fill="#F3322C"/>
<path d="M230 80H220V90H230V80Z" fill="#5A423F"/>
<path d="M240 80H230V90H240V80Z" fill="#F3322C"/>
<path d="M250 80H240V90H250V80Z" fill="#5A423F"/>
<path d="M10 90H0V100H10V90Z" fill="#5A423F"/>
<path d="M20 90H10V100H20V90Z" fill="#7D635E"/>
<path d="M30 90H20V100H30V90Z" fill="#5A423F"/>
<path d="M40 90H30V100H40V90Z" fill="#D6C3BE"/>
<path d="M170 90H40V100H170V90Z" fill="#5A423F"/>
<path d="M180 90H170V100H180V90Z" fill="#7D635E"/>
<path d="M250 90H180V100H250V90Z" fill="#5A423F"/>
<path d="M10 100H0V110H10V100Z" fill="#5A423F"/>
<path d="M180 100H10V110H180V100Z" fill="#7D635E"/>
<path d="M190 100H180V110H190V100Z" fill="#5A423F"/>
<path d="M200 100H190V110H200V100Z" fill="#D6C3BE"/>
<path d="M210 100H200V110H210V100Z" fill="#5A423F"/>
<path d="M220 100H210V110H220V100Z" fill="#F3322C"/>
<path d="M230 100H220V110H230V100Z" fill="#5A423F"/>
<path d="M240 100H230V110H240V100Z" fill="#D6C3BE"/>
<path d="M250 100H240V110H250V100Z" fill="#5A423F"/>
<path d="M250 110H0V120H250V110Z" fill="#5A423F"/>
</svg>
