<svg width="260" height="130" viewBox="0 0 260 130" fill="none" xmlns="http://www.w3.org/2000/svg">
<path d="M100 0H20V10H100V0Z" fill="#D6C3BE"/>
<path d="M240 0H100V10H240V0Z" fill="#A3BAED"/>
<path d="M20 10H0V20H20V10Z" fill="#7E5243"/>
<path d="M30 10H20V20H30V10Z" fill="#D6C3BE"/>
<path d="M110 10H30V20H110V10Z" fill="#FFF0EE"/>
<path d="M250 10H110V20H250V10Z" fill="#9CB4B8"/>
<path d="M260 10H250V20H260V10Z" fill="#7E5243"/>
<path d="M10 20H0V30H10V20Z" fill="#7E5243"/>
<path d="M20 20H10V30H20V20Z" fill="black"/>
<path d="M30 20H20V30H30V20Z" fill="#D6C3BE"/>
<path d="M110 20H30V30H110V20Z" fill="#FFF0EE"/>
<path d="M250 20H110V30H250V20Z" fill="#9CB4B8"/>
<path d="M260 20H250V30H260V20Z" fill="#7E5243"/>
<path d="M130 30H0V40H130V30Z" fill="#7E5243"/>
<path d="M140 30H130V40H140V30Z" fill="#5A423F"/>
<path d="M260 30H140V40H260V30Z" fill="#7E5243"/>
<path d="M10 40H0V50H10V40Z" fill="#7E5243"/>
<path d="M120 40H10V50H120V40Z" fill="#D6C3BE"/>
<path d="M130 40H120V50H130V40Z" fill="#7E5243"/>
<path d="M140 40H130V50H140V40Z" fill="#5A423F"/>
<path d="M150 40H140V50H150V40Z" fill="#7E5243"/>
<path d="M250 40H150V50H250V40Z" fill="#2B83F6"/>
<path d="M260 40H250V50H260V40Z" fill="#7E5243"/>
<path d="M10 50H0V60H10V50Z" fill="#7E5243"/>
<path d="M20 50H10V60H20V50Z" fill="#D6C3BE"/>
<path d="M70 50H20V60H70V50Z" fill="#B2958D"/>
<path d="M120 50H70V60H120V50Z" fill="#D6C3BE"/>
<path d="M130 50H120V60H130V50Z" fill="#7E5243"/>
<path d="M140 50H130V60H140V50Z" fill="#5A423F"/>
<path d="M260 50H140V60H260V50Z" fill="#7E5243"/>
<path d="M10 60H0V70H10V60Z" fill="#7E5243"/>
<path d="M20 60H10V70H20V60Z" fill="#D6C3BE"/>
<path d="M30 60H20V70H30V60Z" fill="#B2958D"/>
<path d="M60 60H30V70H60V60Z" fill="#D6C3BE"/>
<path d="M70 60H60V70H70V60Z" fill="#B2958D"/>
<path d="M120 60H70V70H120V60Z" fill="#D6C3BE"/>
<path d="M130 60H120V70H130V60Z" fill="#7E5243"/>
<path d="M140 60H130V70H140V60Z" fill="#5A423F"/>
<path d="M150 60H140V70H150V60Z" fill="#7E5243"/>
<path d="M250 60H150V70H250V60Z" fill="#FFC110"/>
<path d="M260 60H250V70H260V60Z" fill="#7E5243"/>
<path d="M10 70H0V80H10V70Z" fill="#7E5243"/>
<path d="M20 70H10V80H20V70Z" fill="#D6C3BE"/>
<path d="M30 70H20V80H30V70Z" fill="#B2958D"/>
<path d="M60 70H30V80H60V70Z" fill="#D6C3BE"/>
<path d="M70 70H60V80H70V70Z" fill="#B2958D"/>
<path d="M120 70H70V80H120V70Z" fill="#D6C3BE"/>
<path d="M130 70H120V80H130V70Z" fill="#7E5243"/>
<path d="M140 70H130V80H140V70Z" fill="#5A423F"/>
<path d="M260 70H140V80H260V70Z" fill="#7E5243"/>
<path d="M10 80H0V90H10V80Z" fill="#7E5243"/>
<path d="M20 80H10V90H20V80Z" fill="#D6C3BE"/>
<path d="M40 80H20V90H40V80Z" fill="#B2958D"/>
<path d="M50 80H40V90H50V80Z" fill="#D6C3BE"/>
<path d="M70 80H50V90H70V80Z" fill="#B2958D"/>
<path d="M120 80H70V90H120V80Z" fill="#D6C3BE"/>
<path d="M130 80H120V90H130V80Z" fill="#7E5243"/>
<path d="M140 80H130V90H140V80Z" fill="#5A423F"/>
<path d="M150 80H140V90H150V80Z" fill="#7E5243"/>
<path d="M250 80H150V90H250V80Z" fill="#A86F60"/>
<path d="M260 80H250V90H260V80Z" fill="#7E5243"/>
<path d="M10 90H0V100H10V90Z" fill="#7E5243"/>
<path d="M20 90H10V100H20V90Z" fill="#D6C3BE"/>
<path d="M30 90H20V100H30V90Z" fill="#B2958D"/>
<path d="M60 90H30V100H60V90Z" fill="#D6C3BE"/>
<path d="M70 90H60V100H70V90Z" fill="#B2958D"/>
<path d="M120 90H70V100H120V90Z" fill="#D6C3BE"/>
<path d="M130 90H120V100H130V90Z" fill="#7E5243"/>
<path d="M140 90H130V100H140V90Z" fill="#5A423F"/>
<path d="M150 90H140V100H150V90Z" fill="#7E5243"/>
<path d="M250 90H150V100H250V90Z" fill="#A86F60"/>
<path d="M260 90H250V100H260V90Z" fill="#7E5243"/>
<path d="M10 100H0V110H10V100Z" fill="#7E5243"/>
<path d="M20 100H10V110H20V100Z" fill="#D6C3BE"/>
<path d="M70 100H20V110H70V100Z" fill="#B2958D"/>
<path d="M80 100H70V110H80V100Z" fill="#D6C3BE"/>
<path d="M110 100H80V110H110V100Z" fill="#D9391F"/>
<path d="M120 100H110V110H120V100Z" fill="#D6C3BE"/>
<path d="M130 100H120V110H130V100Z" fill="#7E5243"/>
<path d="M140 100H130V110H140V100Z" fill="#5A423F"/>
<path d="M260 100H140V110H260V100Z" fill="#7E5243"/>
<path d="M10 110H0V120H10V110Z" fill="#7E5243"/>
<path d="M120 110H10V120H120V110Z" fill="#D6C3BE"/>
<path d="M130 110H120V120H130V110Z" fill="#7E5243"/>
<path d="M140 110H130V120H140V110Z" fill="#5A423F"/>
<path d="M260 110H140V120H260V110Z" fill="#7E5243"/>
<path d="M130 120H0V130H130V120Z" fill="#7E5243"/>
<path d="M140 120H130V130H140V120Z" fill="#5A423F"/>
<path d="M260 120H140V130H260V120Z" fill="#7E5243"/>
</svg>
